<svg width="88" height="88" viewBox="0 0 88 88" fill="none" xmlns="http://www.w3.org/2000/svg">
<g clip-path="url(#clip0_134_779)">
<path d="M20.3289 28.0032V20.2048H0V28.0032H4.66128V44.6633H0V52.4616H20.3289V44.6633H15.6676V28.0032H20.3289Z" fill="#303030"/>
<path d="M42.7846 32.5758C41.5262 32.2036 35.0572 30.3604 33.9406 29.9882C32.824 29.616 31.9024 29.102 31.9024 28.4285C31.9024 27.755 32.9303 27.0638 35.004 27.0638C41.5617 27.0638 44.7165 31.1048 44.7165 31.1048C44.7165 31.1048 45.071 31.5833 45.195 31.7428H51.5223V20.7011H44.7342V22.7038C44.2202 22.3494 40.3919 19.8503 34.4368 19.8503C26.6031 19.8503 22.2253 23.9268 22.2253 29.9882C22.2253 36.0496 27.7374 38.5841 29.2616 39.2221C30.7858 39.8602 36.7763 41.5616 39.3463 42.3592C41.9162 43.1568 42.8378 43.7239 42.8378 44.1493C42.8378 44.5746 41.7212 45.6381 38.5133 45.6381C32.9481 45.6381 30.0769 42.3592 29.5629 41.7212C29.4034 41.5085 29.2084 41.2426 29.1552 41.154C29.0843 41.0477 28.9071 40.7995 28.783 40.6223H22.4557V52.4084H29.5629V49.9449C30.3959 50.4943 34.6141 53.1351 39.7007 53.1351C45.3722 53.1351 52.5857 50.6715 52.5857 42.9618C52.5857 35.2521 44.0075 32.9303 42.7669 32.5581L42.7846 32.5758Z" fill="#303030"/>
<path d="M70.6459 19.7617C61.1993 19.7617 53.4541 24.4939 53.4541 36.5459C53.4541 48.5979 61.8728 53.1174 70.6991 53.1174C79.5254 53.1174 87.8554 48.6333 87.8554 36.67C87.8554 24.7066 79.5254 19.7617 70.6636 19.7617H70.6459ZM70.7168 45.0886C67.4911 45.0886 65.4175 44.3442 65.4175 36.5104C65.4175 28.6766 66.9594 27.8436 70.8409 27.8436C73.1981 27.8436 76.0693 28.0032 76.0693 36.2623C76.0693 44.5215 73.9602 45.0886 70.7168 45.0886Z" fill="#303030"/>
<path d="M13.5585 16.6601C15.6853 13.523 18.2907 10.7404 21.286 8.43639C22.4912 9.34029 23.785 10.1378 25.132 10.8645C22.8634 13.399 20.8429 16.1816 20.5061 16.6601H21.8708C22.6861 15.5612 24.3699 13.3458 26.1599 11.3785C28.1095 12.3356 30.1654 13.1154 32.3277 13.718C31.7606 14.9409 31.3175 16.0043 31.0693 16.6601H32.2568C32.5227 15.9866 32.9303 15.0473 33.4266 14.0016C36.1737 14.6751 39.0626 15.0473 42.0225 15.1004V16.6601H43.1213V15.1182C46.0457 15.1004 48.9169 14.7637 51.6641 14.1434C52.1249 15.1359 52.5148 16.0221 52.7629 16.6778H53.9504C53.7023 16.0398 53.2946 15.0473 52.7629 13.8775C54.9606 13.3104 57.0697 12.5482 59.0548 11.6089C60.774 13.523 62.3691 15.6144 63.1489 16.6778H64.5136C64.1946 16.217 62.2627 13.5762 60.065 11.0949C61.5715 10.3151 62.9894 9.42891 64.3364 8.45412C67.3317 10.7582 69.937 13.5408 72.0638 16.6778H73.3754C66.8531 6.64632 55.581 0 42.7846 0C29.9882 0 18.7161 6.64632 12.2292 16.6601H13.5408H13.5585ZM32.8062 12.7078C30.7503 12.1583 28.783 11.4317 26.922 10.5455C27.1702 10.2796 27.4183 10.0315 27.6842 9.78338C30.2186 7.33753 34.4014 4.64356 35.323 4.05868C36.0674 4.46633 36.8827 4.8208 37.7334 5.08665C37.0599 5.97282 35.7484 7.74518 34.3127 10.0138C33.7633 10.9 33.2493 11.8216 32.8062 12.7078ZM41.987 14.0016C39.2044 13.9484 36.4927 13.5939 33.8874 12.9913C34.295 12.1938 34.7381 11.3785 35.2344 10.6164C36.8827 8.01103 38.3714 6.04372 38.8677 5.40567C39.8602 5.63608 40.9059 5.77787 41.9693 5.83104V14.0016H41.987ZM43.0859 14.0016V5.83104C44.1493 5.81331 45.1773 5.70697 46.1698 5.49429C46.7369 6.22095 48.1548 8.11737 49.7145 10.5809C50.2285 11.3962 50.707 12.2469 51.1324 13.08C48.5447 13.6471 45.8508 13.9661 43.0859 13.9839V14.0016ZM52.2312 12.8495C51.7704 11.9279 51.2387 10.9354 50.6538 10.0138C49.2891 7.86924 48.0307 6.15006 47.3395 5.22844C48.2612 4.96258 49.1296 4.64356 49.9272 4.23592C51.221 5.06893 54.9429 7.53249 57.3001 9.78338C57.6192 10.0847 57.9205 10.4037 58.2395 10.7404C56.3431 11.6089 54.3403 12.3178 52.2489 12.8495H52.2312ZM63.3616 7.74518C62.0678 8.6668 60.7031 9.4998 59.2497 10.2442C58.8421 9.81883 58.4345 9.39346 58.0268 9.00354C55.8291 6.89445 52.568 4.66128 50.9729 3.63332C51.5223 3.27885 52.0185 2.88893 52.4616 2.46357C56.4317 3.59787 60.1005 5.40567 63.3616 7.7629V7.74518ZM42.7846 1.09886C45.6735 1.09886 48.4916 1.45333 51.1855 2.1091C49.1473 3.77511 46.0812 4.7499 42.7846 4.7499C39.488 4.7499 36.4218 3.77511 34.3659 2.1091C37.0599 1.45333 39.8779 1.09886 42.7846 1.09886ZM33.1075 2.44584C33.462 2.80032 33.8697 3.11934 34.295 3.42064C32.8417 4.35998 29.2793 6.73494 26.922 9.00354C26.5853 9.32257 26.2485 9.67704 25.9118 10.0315C24.618 9.35802 23.3773 8.5959 22.2076 7.74518C25.4687 5.38795 29.1552 3.58015 33.1075 2.44584Z" fill="#303030"/>
<path d="M72.0106 56.1127C69.937 59.1788 67.3848 61.9083 64.4781 64.1946C63.0957 63.1489 61.6069 62.2096 60.0295 61.3943C61.9259 59.2497 63.6274 56.9634 64.2654 56.1127H62.9007C62.05 57.2293 60.5789 59.1434 59.0193 60.898C57.0342 59.9587 54.9251 59.1966 52.7274 58.6294C53.1882 57.6369 53.5604 56.7507 53.8086 56.1304H52.6211C52.373 56.7507 52.0362 57.5128 51.6286 58.3636C48.8814 57.7432 46.0102 57.4065 43.0858 57.3888V56.1304H41.987V57.3888C39.0272 57.4419 36.1559 57.8141 33.3911 58.4876C32.9657 57.5837 32.6112 56.7684 32.3454 56.1127H31.1579C31.4238 56.7684 31.8137 57.7078 32.3099 58.7535C30.1477 59.3561 28.074 60.1359 26.1422 61.093C24.5116 59.2852 22.9519 57.2824 22.0835 56.1127H20.7188C21.3745 56.9988 23.1646 59.4092 25.1496 61.6247C23.7318 62.3868 22.3671 63.2375 21.1087 64.1946C18.202 61.9083 15.6498 59.1788 13.5762 56.1127H12.2646C18.7515 66.1265 30.0236 72.7728 42.82 72.7728C55.6164 72.7728 66.8885 66.1265 73.3753 56.1127H72.0638H72.0106ZM52.2312 59.6219C54.3225 60.1536 56.3253 60.8626 58.2217 61.731C57.9027 62.0678 57.5837 62.3868 57.2824 62.6881C54.9429 64.939 51.2209 67.4026 49.9271 68.2356C49.1296 67.8279 48.2611 67.4912 47.3395 67.243C48.0307 66.3214 49.2891 64.6022 50.6538 62.4577C51.2387 61.5361 51.7704 60.5435 52.2312 59.6219ZM43.0858 58.4699C45.8507 58.4876 48.5447 58.7889 51.1323 59.3738C50.707 60.2068 50.2284 61.0753 49.7144 61.8905C48.1548 64.3541 46.7369 66.2505 46.1697 66.9772C45.1772 66.7822 44.1492 66.6759 43.0858 66.6582V58.4876V58.4699ZM41.987 58.4699V66.6404C40.9058 66.6936 39.8779 66.8354 38.8854 67.0658C38.3891 66.4278 36.9003 64.4782 35.252 61.8728C34.7558 61.093 34.3127 60.2777 33.9051 59.4801C36.4927 58.8598 39.2221 58.5231 42.0047 58.4699H41.987ZM32.8062 59.7637C33.2493 60.6499 33.7633 61.5715 34.3127 62.4577C35.7483 64.7263 37.0598 66.4987 37.7333 67.3848C36.8649 67.6507 36.0496 68.0051 35.3229 68.4128C34.4013 67.8279 30.2186 65.1339 27.6841 62.6881C27.436 62.44 27.1878 62.1918 26.922 61.926C28.783 61.0398 30.7503 60.3131 32.8062 59.7637ZM21.9949 64.8681C23.2178 63.9642 24.5293 63.1666 25.894 62.44C26.2308 62.7944 26.5675 63.1489 26.922 63.4679C29.2615 65.7365 32.8416 68.1115 34.295 69.0508C33.781 69.4053 33.3025 69.813 32.8948 70.2383C28.9425 69.0863 25.2737 67.243 22.0126 64.8681H21.9949ZM42.7845 71.6739C39.7893 71.6739 36.8826 71.3017 34.1177 70.5928C36.1382 68.8204 39.3639 67.7393 42.7845 67.7393C46.2052 67.7393 49.4309 68.8204 51.4513 70.5928C48.6687 71.3017 45.7798 71.6739 42.7845 71.6739ZM52.692 70.256C52.1957 69.7421 51.6286 69.2812 50.9905 68.8559C52.5856 67.8102 55.8468 65.5948 58.0445 63.4857C58.4521 63.0957 58.8598 62.6704 59.2674 62.245C60.7916 63.0071 62.2272 63.8933 63.5742 64.8858C60.3308 67.2608 56.662 69.104 52.692 70.256Z" fill="#303030"/>
<path d="M2.09141 84.3993C2.14459 85.3032 2.49906 85.9412 3.1371 86.278C3.47385 86.4552 3.84604 86.5438 4.27141 86.5438C5.05124 86.5438 5.72473 86.2248 6.27416 85.569C6.82359 84.9133 7.21351 83.584 7.44392 81.5812C7.07172 82.1661 6.62863 82.5738 6.07921 82.8042C5.5475 83.0346 4.96262 83.1586 4.3423 83.1586C3.08393 83.1586 2.09141 82.7687 1.34703 81.9889C0.620363 81.2091 0.248169 80.1988 0.248169 78.9582C0.248169 77.7175 0.602639 76.725 1.3293 75.8211C2.05597 74.9172 3.11938 74.4741 4.53726 74.4741C6.4514 74.4741 7.76294 75.3249 8.4896 77.044C8.89724 77.9834 9.0922 79.1709 9.0922 80.5887C9.0922 82.1839 8.84407 83.6017 8.36554 84.8424C7.56798 86.8983 6.22099 87.9263 4.30685 87.9263C3.03076 87.9263 2.05597 87.5895 1.4002 86.916C0.744427 86.2425 0.407681 85.4095 0.407681 84.3993H2.07369H2.09141ZM6.3805 81.0673C6.91221 80.6419 7.19579 79.8975 7.19579 78.8164C7.19579 77.8593 6.94766 77.1326 6.46912 76.6718C5.99059 76.1933 5.37026 75.9629 4.62588 75.9629C3.82832 75.9629 3.19027 76.2287 2.71174 76.7782C2.2332 77.3099 2.0028 78.0365 2.0028 78.9404C2.0028 79.7912 2.21548 80.4647 2.62312 80.9786C3.03076 81.4749 3.70425 81.723 4.60815 81.723C5.26392 81.723 5.8488 81.5104 6.39823 81.085L6.3805 81.0673Z" fill="#303030"/>
<path d="M18.7514 76.5833C19.3363 77.6645 19.6199 79.1355 19.6199 81.0142C19.6199 82.7865 19.354 84.2576 18.8223 85.4274C18.0602 87.0934 16.8019 87.9264 15.065 87.9264C13.4876 87.9264 12.3178 87.2529 11.5557 85.8882C10.9177 84.7539 10.5986 83.2119 10.5986 81.2978C10.5986 79.809 10.7936 78.5329 11.1658 77.4695C11.8924 75.4845 13.1863 74.4919 15.065 74.4919C16.7664 74.4919 17.9893 75.1832 18.7337 76.5833H18.7514ZM17.0854 85.2856C17.5994 84.5235 17.8475 83.1233 17.8475 81.0674C17.8475 79.5786 17.6703 78.3557 17.2981 77.3986C16.9259 76.4415 16.217 75.963 15.1713 75.963C14.1965 75.963 13.4876 76.4238 13.0445 77.3277C12.6014 78.2316 12.371 79.5786 12.371 81.3509C12.371 82.6802 12.5128 83.7613 12.7963 84.5589C13.2394 85.7995 13.9838 86.4199 15.0472 86.4199C15.898 86.4199 16.5892 86.0477 17.0854 85.2856Z" fill="#303030"/>
<path d="M29.1551 76.5833C29.74 77.6645 30.0236 79.1355 30.0236 81.0142C30.0236 82.7865 29.7577 84.2576 29.226 85.4274C28.4639 87.0934 27.2055 87.9264 25.4686 87.9264C23.8913 87.9264 22.7215 87.2529 21.9594 85.8882C21.3213 84.7539 21.0023 83.2119 21.0023 81.2978C21.0023 79.809 21.1973 78.5329 21.5695 77.4695C22.2961 75.4845 23.59 74.4919 25.4686 74.4919C27.1701 74.4919 28.393 75.1832 29.1374 76.5833H29.1551ZM27.4891 85.2856C28.0031 84.5235 28.2512 83.1233 28.2512 81.0674C28.2512 79.5786 28.074 78.3557 27.7018 77.3986C27.3296 76.4415 26.6207 75.963 25.575 75.963C24.6002 75.963 23.8913 76.4238 23.4482 77.3277C23.0051 78.2316 22.7747 79.5786 22.7747 81.3509C22.7747 82.6802 22.9165 83.7613 23.2 84.5589C23.6431 85.7995 24.3875 86.4199 25.4509 86.4199C26.3016 86.4199 26.9929 86.0477 27.4891 85.2856Z" fill="#303030"/>
<path d="M32.6112 78.3025V77.0441C33.7987 76.92 34.6317 76.7428 35.0925 76.4592C35.5533 76.1934 35.9078 75.5553 36.1382 74.5273H37.432V87.5541H35.6774V78.2847H32.5935L32.6112 78.3025Z" fill="#303030"/>
<path d="M43.2986 77.9126H45.2127V79.8976H43.2986V77.9126ZM43.2986 85.5692H45.2127V87.5542H43.2986V85.5692Z" fill="white"/>
<path d="M47.7117 84.6298C48.1194 83.7968 48.8992 83.0347 50.0867 82.3612L51.8413 81.351C52.6211 80.8902 53.1706 80.5003 53.4896 80.1812C53.9858 79.6673 54.234 79.1001 54.234 78.4443C54.234 77.6822 54.0036 77.0796 53.5428 76.6188C53.0819 76.1757 52.4793 75.9453 51.7172 75.9453C50.5829 75.9453 49.8031 76.3707 49.3777 77.2214C49.1473 77.6822 49.0233 78.3203 48.9878 79.1356H47.3218C47.3395 78.0013 47.5522 77.0619 47.9599 76.353C48.6688 75.0946 49.9272 74.4565 51.735 74.4565C53.2415 74.4565 54.3226 74.8642 55.0138 75.6795C55.705 76.4948 56.0595 77.3986 56.0595 78.3912C56.0595 79.4369 55.6873 80.3408 54.9606 81.0851C54.5353 81.5105 53.7732 82.0422 52.6743 82.6625L51.4159 83.3537C50.8133 83.6905 50.3525 83.9918 50.0158 84.2931C49.4132 84.8248 49.0233 85.4097 48.8638 86.0477H56.0063V87.6074H47.0205C47.0737 86.4731 47.3218 85.4983 47.7117 84.6653V84.6298Z" fill="#303030"/>
<path d="M65.5593 76.5833C66.1442 77.6645 66.4278 79.1355 66.4278 81.0142C66.4278 82.7865 66.1619 84.2576 65.6302 85.4274C64.8681 87.0934 63.6097 87.9264 61.8728 87.9264C60.2954 87.9264 59.1257 87.2529 58.3636 85.8882C57.7255 84.7539 57.4065 83.2119 57.4065 81.2978C57.4065 79.809 57.6015 78.5329 57.9736 77.4695C58.7003 75.4845 59.9941 74.4919 61.8728 74.4919C63.5743 74.4919 64.7972 75.1832 65.5416 76.5833H65.5593ZM63.911 85.2856C64.425 84.5235 64.6731 83.1233 64.6731 81.0674C64.6731 79.5786 64.4959 78.3557 64.1237 77.3986C63.7515 76.4415 63.0426 75.963 61.9969 75.963C61.0221 75.963 60.3131 76.4238 59.8701 77.3277C59.427 78.2316 59.1966 79.5786 59.1966 81.3509C59.1966 82.6802 59.3384 83.7613 59.6219 84.5589C60.065 85.7995 60.8094 86.4199 61.8728 86.4199C62.7235 86.4199 63.4148 86.0477 63.911 85.2856Z" fill="#303030"/>
<path d="M69.0331 78.3025V77.0441C70.2206 76.92 71.0536 76.7428 71.5144 76.4592C71.9752 76.1934 72.3297 75.5553 72.5601 74.5273H73.8539V87.5541H72.0993V78.2847H69.0154L69.0331 78.3025Z" fill="#303030"/>
<path d="M79.9508 84.2399C80.0571 85.1793 80.5002 85.8351 81.2623 86.1895C81.6522 86.3668 82.0953 86.4554 82.6093 86.4554C83.5841 86.4554 84.3107 86.1364 84.7715 85.516C85.2324 84.8957 85.4805 84.2045 85.4805 83.4601C85.4805 82.5385 85.1969 81.8473 84.6475 81.3333C84.098 80.8193 83.4246 80.5889 82.6447 80.5889C82.0776 80.5889 81.599 80.6952 81.1914 80.9256C80.7838 81.1383 80.447 81.4573 80.1457 81.8473L78.7278 81.7586L79.7203 74.7224H86.5085V76.3175H80.9433L80.3938 79.9509C80.6951 79.7204 80.9964 79.5432 81.2623 79.4369C81.7408 79.2419 82.308 79.1356 82.946 79.1356C84.1512 79.1356 85.1615 79.5255 85.9945 80.2876C86.8275 81.0674 87.2528 82.0422 87.2528 83.2297C87.2528 84.4172 86.8629 85.5515 86.1008 86.5086C85.3387 87.4479 84.1158 87.9264 82.4498 87.9264C81.3864 87.9264 80.447 87.6251 79.614 87.0225C78.7987 86.4199 78.3379 85.4983 78.2316 84.2577H79.933L79.9508 84.2399Z" fill="#303030"/>
</g>
<defs>
<clipPath id="clip0_134_779">
<rect width="87.8377" height="87.9264" fill="white"/>
</clipPath>
</defs>
</svg>
